<svg xmlns:xlink="http://www.w3.org/1999/xlink" xmlns:inkscape="http://www.inkscape.org/namespaces/inkscape" xmlns:sodipodi="http://sodipodi.sourceforge.net/DTD/sodipodi-0.dtd" xmlns="http://www.w3.org/2000/svg" xmlns:svg="http://www.w3.org/2000/svg" width="128" height="64" version="1.1" viewBox="0 0 128 63.999998" id="svg70" sodipodi:docname="setting_bezel.svg" inkscape:version="1.2.2 (b0a8486541, 2022-12-01)" xml:space="preserve"><defs id="defs74"><inkscape:path-effect effect="fillet_chamfer" id="path-effect6239" is_visible="true" lpeversion="1" nodesatellites_param="F,0,0,1,0,3,0,1 @ F,0,0,1,0,3,0,1 @ F,0,0,1,0,3,0,1 @ F,0,0,1,0,3,0,1 @ F,0,0,1,0,3,0,1 @ F,0,0,1,0,3,0,1 @ F,0,0,1,0,3,0,1 @ F,0,0,1,0,3,0,1" unit="px" method="auto" mode="F" radius="3" chamfer_steps="1" flexible="false" use_knot_distance="true" apply_no_radius="true" apply_with_radius="true" only_selected="false" hide_knots="false"/><clipPath clipPathUnits="userSpaceOnUse" id="clipPath5852"><rect style="fill:none;stroke:#ffffff;stroke-linecap:round;stroke-linejoin:round;paint-order:stroke fill markers;stop-color:#000000" id="rect5854" width="343.75177" height="423.19275" x="-101.39695" y="-146.17921"/></clipPath></defs><sodipodi:namedview id="namedview72" pagecolor="#7e7e7e" bordercolor="#666666" borderopacity="1.0" inkscape:pageshadow="2" inkscape:pageopacity="0" inkscape:pagecheckerboard="0" showgrid="true" inkscape:zoom="5.4228464" inkscape:cx="88.606604" inkscape:cy="41.306721" inkscape:window-width="2194" inkscape:window-height="1176" inkscape:window-x="0" inkscape:window-y="0" inkscape:window-maximized="1" inkscape:current-layer="svg70" lock-margins="true" fit-margin-top="4" fit-margin-left="4" fit-margin-right="4" fit-margin-bottom="4" inkscape:showpageshadow="2" inkscape:deskcolor="#7e7e7e"><inkscape:grid type="xygrid" id="grid996" empspacing="4"/></sodipodi:namedview><path d="M 42,24 9.0439551,24.119304 c -10.0593837,0.153181 -10.0593837,15.227549 0,15.380848 L 42,39.380848 m 44,-2.77e-4 32.8406,0.119581 c 4.17482,-0.131796 7.52855,-3.498911 7.65993,-7.690284 0.017,-4.254352 -3.42237,-7.707414 -7.65993,-7.690287 L 86,24" style="fill:none;stroke:#ffffff;stroke-width:1;stroke-dasharray:none" id="path530" sodipodi:nodetypes="ccccccccc"/><path style="fill:none;stroke:#ffffff;stroke-width:1px;stroke-linecap:butt;stroke-linejoin:miter;stroke-opacity:1" d="M 44.12132,9.8786797 47.87868,6.1213203 A 7.2426407,7.2426407 157.5 0 1 53,4 h 22 a 7.2426407,7.2426407 22.5 0 1 5.12132,2.1213203 l 3.75736,3.7573594 A 7.2426407,7.2426407 67.5 0 1 86,15 v 34 a 7.2426407,7.2426407 112.5 0 1 -2.12132,5.12132 l -3.75736,3.75736 A 7.2426407,7.2426407 157.5 0 1 75,60 L 53,60 A 7.2426407,7.2426407 22.5 0 1 47.87868,57.87868 L 44.12132,54.12132 A 7.2426407,7.2426407 67.5 0 1 42,49 V 15 a 7.2426407,7.2426407 112.5 0 1 2.12132,-5.1213203 z" id="path5856" inkscape:path-effect="#path-effect6239" inkscape:original-d="m 42,12 8,-8 h 28 l 8,8 v 40 l -8,8 H 50 l -8,-8 z"/><path style="fill:none;stroke:#ffffff;stroke-width:1px;stroke-linecap:butt;stroke-linejoin:miter;stroke-opacity:1" d="m 46,14 6,-6 h 24 l 6,6 v 36 l -6,6 H 52 l -6,-6 z" id="path6221"/><path style="fill:none;stroke:#ffffff;stroke-width:1px;stroke-linecap:butt;stroke-linejoin:miter;stroke-opacity:1" d="m 52,8 4,6 -6,6 -4,-6" id="path6223"/><path style="fill:none;stroke:#ffffff;stroke-width:1px;stroke-linecap:butt;stroke-linejoin:miter;stroke-opacity:1" d="m 76,8 -4,6 6,6 4,-6" id="path6225"/><path style="fill:none;stroke:#ffffff;stroke-width:1px;stroke-linecap:butt;stroke-linejoin:miter;stroke-opacity:1" d="m 76,56 -4,-6 6,-6 4,6" id="path6227"/><path style="fill:none;stroke:#ffffff;stroke-width:1px;stroke-linecap:butt;stroke-linejoin:miter;stroke-opacity:1" d="m 52,56 4,-6 -6,-6 -4,6" id="path6229"/><path style="fill:none;stroke:#fefefe;stroke-width:1px;stroke-linecap:butt;stroke-linejoin:miter;stroke-opacity:1" d="M 50,20 72,14 H 56 l 22,6" id="path6231"/><path style="fill:none;stroke:#ffffff;stroke-width:1px;stroke-linecap:butt;stroke-linejoin:miter;stroke-opacity:1" d="M 56,14 50,44 V 20 l 6,30" id="path6233"/><path style="fill:none;stroke:#fefefe;stroke-width:1px;stroke-linecap:butt;stroke-linejoin:miter;stroke-opacity:1" d="m 72,14 6,30 V 20 l -6,30" id="path6235"/><path style="fill:none;stroke:#ffffff;stroke-width:1px;stroke-linecap:butt;stroke-linejoin:miter;stroke-opacity:1" d="m 50,44 22,6 H 56 l 22,-6" id="path6237"/></svg>