<svg xmlns:xlink="http://www.w3.org/1999/xlink" xmlns:inkscape="http://www.inkscape.org/namespaces/inkscape" xmlns:sodipodi="http://sodipodi.sourceforge.net/DTD/sodipodi-0.dtd" xmlns="http://www.w3.org/2000/svg" xmlns:svg="http://www.w3.org/2000/svg" width="128" height="64" version="1.1" viewBox="0 0 128 63.999998" id="svg70" sodipodi:docname="setting_oval_sideways.svg" inkscape:version="1.2.2 (b0a8486541, 2022-12-01)" xml:space="preserve"><defs id="defs74"/><sodipodi:namedview id="namedview72" pagecolor="#7e7e7e" bordercolor="#666666" borderopacity="1.0" inkscape:pageshadow="2" inkscape:pageopacity="0" inkscape:pagecheckerboard="0" showgrid="true" inkscape:zoom="7.6690629" inkscape:cx="91.732198" inkscape:cy="38.727026" inkscape:window-width="2194" inkscape:window-height="1176" inkscape:window-x="0" inkscape:window-y="0" inkscape:window-maximized="1" inkscape:current-layer="svg70" lock-margins="true" fit-margin-top="4" fit-margin-left="4" fit-margin-right="4" fit-margin-bottom="4" inkscape:showpageshadow="2" inkscape:deskcolor="#7e7e7e"><inkscape:grid type="xygrid" id="grid996" empspacing="4"/></sodipodi:namedview><path id="path1370-3-6-5" style="fill:none;stroke:#ffffff;stroke-width:1;stroke-linecap:round;stroke-linejoin:round;stroke-dasharray:none;stroke-opacity:1;paint-order:stroke fill markers;stop-color:#000000" d="m 83.26995,48.659532 c -1.158374,-1.365472 -1.821928,-4.714458 -2.886249,-8.552012 3.612724,1.675662 6.808738,2.876281 7.967111,4.241753 1.158374,1.365471 0.960032,3.437287 -0.443015,4.627532 -1.403042,1.190247 -3.479478,1.048198 -4.637851,-0.317273 z m -38.372299,0 c 1.158374,-1.365472 1.821928,-4.714458 2.886249,-8.552012 -3.612724,1.675662 -6.808738,2.876281 -7.967111,4.241753 -1.158374,1.365471 -0.960032,3.437287 0.443015,4.627532 1.403042,1.190247 3.479478,1.048198 4.637851,-0.317273 z M 83.26995,15.344698 c -1.158374,1.365472 -1.821928,4.714458 -2.886249,8.552012 3.612724,-1.675662 6.808738,-2.876281 7.967111,-4.241753 1.158374,-1.365471 0.960032,-3.437287 -0.443015,-4.627532 -1.403042,-1.190247 -3.479478,-1.048198 -4.637851,0.317273 z m -38.372299,0 c 1.158374,1.365472 1.821928,4.714458 2.886249,8.552012 -3.612724,-1.675662 -6.808738,-2.876281 -7.967111,-4.241753 -1.158374,-1.365471 -0.960032,-3.437287 0.443015,-4.627532 1.403042,-1.190247 3.479478,-1.048198 4.637851,0.317273 z" sodipodi:nodetypes="scssssscssssscssssscssss"/><path id="path1140" style="fill:none;stroke:#f9f9f9" class="stroke" transform="rotate(-90)" d="m -19.728057,88.120914 c -3.494507,3.200585 -7.720155,5.072314 -12.271943,5.072314 -4.543033,0 -8.761179,-1.864536 -12.251771,-5.053861 m -4.204143,-5.015591 C -51.77206,78.001165 -53.779074,71.314754 -53.779074,64 c 0,-7.263364 1.978912,-13.907183 5.253461,-19.015577 m 4.146873,-5.006898 c 3.515059,-3.260611 7.780483,-5.170753 12.37874,-5.170753 4.535019,0 8.746298,1.857964 12.233293,5.036997 m 4.217456,5.024479 c 3.319227,5.123645 5.328325,11.813201 5.328325,19.131752 0,7.371101 -2.038054,14.104143 -5.400029,19.241881" sodipodi:nodetypes="csccsccsccsc"/><path d="M 37.005124,24.119304 H 9.0439551 c -10.0593837,0.153181 -10.0593837,15.227549 0,15.380848 H 37.005124 m 54.342014,0 H 118.8406 c 4.17482,-0.131796 7.52855,-3.498911 7.65993,-7.690284 0.017,-4.254352 -3.42237,-7.707414 -7.65993,-7.690287 H 91.347138" style="fill:none;stroke:#ffffff;stroke-width:1;stroke-dasharray:none" id="path530"/><path id="path22" d="M 45.154139,37.875632 56.283218,17.767411 M 45.154139,25.900959 72.183137,17.767411 M 56.28345,17.540983 83.093212,26.12736 M 72.194509,17.767457 82.869768,38.101912 m 0.227633,-11.9742 -11.588525,20.10822 m 11.356749,-8.133548 -27.256437,7.907083 m 15.899669,0.226419 -26.575289,-8.811443 m 10.903216,8.582994 -9.954999,0.733989 m -1.536949,-5.085609 0.589603,-4.00691 m 26.802024,8.584885 -8.17681,7.229188 -7.725687,-7.455663 m 27.03064,-8.134021 0.444524,3.715219 m -0.689697,5.646997 -10.884768,-1.002258 m 11.351513,-20.107924 9.539818,6.099753 -9.767489,5.874799 M 71.962733,17.766243 82.507979,17.002811 m 1.151136,5.26339 -0.567775,3.858573 m -26.800856,-8.357363 7.949139,-7.230588 7.725687,7.230588 M 45.161062,26.12533 44.644867,22.439777 m 1.123851,-5.514548 10.521182,0.840199 m 5.84e-4,28.469763 -11.129079,-20.10823 m -3.43e-4,11.748671 -9.767491,-5.874799 9.767491,-5.874808 m -9.27e-4,-3.43e-4 -8.014764,-2.258749 m 19.143723,-6.326228 -3.173026,-5.648334 m 30.213164,14.008004 7.49531,-2.258749 m -7.49531,14.23307 7.49531,2.258749 m -18.851753,6.099763 3.173016,5.648324 m -18.851707,-5.648324 -3.173026,5.648324 m -7.949139,-14.007995 -8.014758,2.25875" class="stroke" style="fill:none;stroke:#f9f9f9;stroke-width:1;stroke-dasharray:none;stroke-opacity:1" sodipodi:nodetypes="cccccccccccccccccccccccccccccccccccccccccccccccccccccccccc"/></svg>