<svg xmlns:xlink="http://www.w3.org/1999/xlink" xmlns:inkscape="http://www.inkscape.org/namespaces/inkscape" xmlns:sodipodi="http://sodipodi.sourceforge.net/DTD/sodipodi-0.dtd" xmlns="http://www.w3.org/2000/svg" xmlns:svg="http://www.w3.org/2000/svg" width="128" height="64" version="1.1" viewBox="0 0 128 63.999998" id="svg70" sodipodi:docname="setting_halo.svg" inkscape:version="1.2.2 (b0a8486541, 2022-12-01)">
  <defs id="defs74"/>
  <sodipodi:namedview id="namedview72" pagecolor="#7e7e7e" bordercolor="#666666" borderopacity="1.0" inkscape:pageshadow="2" inkscape:pageopacity="0" inkscape:pagecheckerboard="0" showgrid="true" inkscape:zoom="2.7114232" inkscape:cx="-0.55321501" inkscape:cy="65.094966" inkscape:window-width="1493" inkscape:window-height="871" inkscape:window-x="0" inkscape:window-y="0" inkscape:window-maximized="1" inkscape:current-layer="svg70" lock-margins="true" fit-margin-top="4" fit-margin-left="4" fit-margin-right="4" fit-margin-bottom="4" inkscape:showpageshadow="2" inkscape:deskcolor="#7e7e7e">
    <inkscape:grid type="xygrid" id="grid996" empspacing="4"/>
  </sodipodi:namedview>
  <path id="path2-3" style="fill:none;stroke:#ffffff;stroke-width:1;stroke-dasharray:none" class="band" d="M 37.005124,24.119305 H 9.0439551 c -10.0593837,0.153181 -10.0593837,15.227549 0,15.380848 H 37.005124 m 54.342014,0 H 118.8406 c 4.17482,-0.131796 7.52855,-3.498911 7.65993,-7.690284 0.017,-4.254352 -3.42237,-7.707414 -7.65993,-7.690287 H 91.347138 m -31.760859,-2.3355 14.511771,6.101297 m -5.937119,-6.101297 5.937119,14.51177 m 0,-8.410473 -6.101298,14.512837 m 6.101298,-5.937118 -14.511771,5.776137 m 8.410473,0.165246 -14.347592,-6.266544 m 5.771873,6.101298 -5.771873,-14.677017 m -0.165245,8.575719 6.431789,-14.347591 m -6.26761,5.930721 -0.494671,-6.761215 6.595969,0.824097 m -6.261213,14.341195 -5.117286,-4.287859 5.277201,-4.122614 m 5.767608,14.517101 -6.595968,0.659917 0.659916,-6.761214 m 14.518168,6.263345 -4.28786,5.117286 -4.287859,-5.277202 m 14.673818,-5.943514 0.494671,6.761214 -6.595968,-0.659917 m 6.111958,-14.507506 5.117287,4.287859 -5.117287,4.122614 m -6.10876,-14.519233 6.761214,-0.659918 -0.659916,6.761215 m -20.440361,0.0075 14.511771,-6.101298 m -8.584247,0.152453 4.287859,-5.277203 4.122614,5.117288 m -4.124744,25.8956 A 15.671689,15.671689 0 1 0 48.200319,31.997332 15.766572,15.766572 0 0 0 63.872008,47.669021 Z m 4.287859,-25.72609 1.649259,-4.122618 m 4.28786,10.059736 4.122613,-1.649259 m -4.122613,10.059732 4.122613,1.649259 m -10.059732,4.453105 1.649259,4.122613 m -10.223911,-4.12265 -1.649259,4.122613 m -4.28786,-10.059731 -4.122613,1.649258 M 53.648096,27.880049 49.525483,26.23079 M 59.585215,21.942931 57.935956,17.820313 M 40.289845,36.784127 a 4.6556644,4.6556644 0 1 0 6.101298,2.473355 4.7334898,4.7334898 0 0 0 -6.101298,-2.473355 z M 84.159914,18.639082 a 4.6556644,4.6556644 0 1 0 6.101297,2.473355 4.7334898,4.7334898 0 0 0 -6.101297,-2.473355 z M 59.255787,8.255255 a 4.6556644,4.6556644 0 1 0 -2.473355,6.101297 4.6748542,4.6748542 0 0 0 2.473355,-6.101297 z m 18.145044,43.859409 a 4.6556644,4.6556644 0 1 0 -2.473355,6.101297 4.6748542,4.6748542 0 0 0 2.473355,-6.101297 z m -18.145044,3.635405 a 4.6556644,4.6556644 0 1 0 -6.101298,2.473355 4.7334898,4.7334898 0 0 0 6.101298,-2.473355 z M 43.925251,18.639082 a 4.6556644,4.6556644 0 1 0 2.473355,6.101298 4.6748542,4.6748542 0 0 0 -2.473355,-6.101298 z m 43.699492,18.145045 a 4.6556644,4.6556644 0 1 0 2.473355,6.101298 4.4211221,4.4211221 0 0 0 -2.473355,-6.101298 z M 77.400831,11.89066 A 4.6556644,4.6556644 0 1 1 74.927476,5.7893627 4.7334898,4.7334898 0 0 1 77.400831,11.89066 Z M 40.300506,27.391774 a 4.6172847,4.6172847 0 1 0 4.617285,4.617285 4.609822,4.609822 0 0 0 -4.617285,-4.617285 z m 47.484152,0 a 4.617285,4.617285 0 1 0 0,9.23457 4.7196305,4.7196305 0 0 0 4.617285,-4.617285 4.609822,4.609822 0 0 0 -4.617285,-4.617285 z M 68.658801,8.255255 a 4.617285,4.617285 0 1 0 -9.23457,0 4.7185644,4.7185644 0 0 0 4.617285,4.617285 4.609822,4.609822 0 0 0 4.617285,-4.617285 z m 0,47.494814 a 4.617285,4.617285 0 0 0 -9.23457,0 4.7196305,4.7196305 0 0 0 4.617285,4.617285 4.609822,4.609822 0 0 0 4.617285,-4.617285 z M 50.524418,52.114664 a 4.6641932,4.6641932 0 1 0 -6.595969,0 4.6780525,4.6780525 0 0 0 6.595969,0 z m 0,-40.224004 a 4.6641932,4.6641932 0 1 0 0,6.595969 4.6780525,4.6780525 0 0 0 0,-6.595969 z m 33.47558,33.635497 a 4.6641932,4.6641932 0 1 0 0,6.595969 4.6780525,4.6780525 0 0 0 0,-6.595969 z m 0,-27.046991 a 4.6641932,4.6641932 0 1 1 0,-6.595968 4.6780525,4.6780525 0 0 1 0,6.595968 m 8.379557,13.518166 A 28.364691,28.364691 0 1 1 64.014863,3.6326397 28.358295,28.358295 0 0 1 92.379555,31.997332 Z m -9.290005,0.01066 A 19.129056,19.129056 0 1 1 63.960494,12.877867 19.142915,19.142915 0 0 1 83.08955,32.007993"/>
</svg>