<svg xmlns:xlink="http://www.w3.org/1999/xlink" xmlns:inkscape="http://www.inkscape.org/namespaces/inkscape" xmlns:sodipodi="http://sodipodi.sourceforge.net/DTD/sodipodi-0.dtd" xmlns="http://www.w3.org/2000/svg" xmlns:svg="http://www.w3.org/2000/svg" width="128" height="64" version="1.1" viewBox="0 0 127.99999 63.999999" id="svg44" sodipodi:docname="setting_trilogy.svg" inkscape:version="1.2.2 (b0a8486541, 2022-12-01)">
  <defs id="defs48"/>
  <sodipodi:namedview id="namedview46" pagecolor="#909090" bordercolor="#666666" borderopacity="1.0" inkscape:pageshadow="2" inkscape:pageopacity="0" inkscape:pagecheckerboard="0" showgrid="true" inkscape:zoom="2.5443922" inkscape:cx="6.8778705" inkscape:cy="70.940321" inkscape:window-width="1493" inkscape:window-height="871" inkscape:window-x="0" inkscape:window-y="0" inkscape:window-maximized="1" inkscape:current-layer="svg44" fit-margin-top="4" lock-margins="true" fit-margin-left="4" fit-margin-right="4" fit-margin-bottom="4" inkscape:showpageshadow="2" inkscape:deskcolor="#909090">
    <inkscape:grid type="xygrid" id="grid2554" empspacing="4"/>
  </sodipodi:namedview>
  <path id="path36" style="fill:none;fill-rule:evenodd;stroke:#ffffff;stroke-width:1;stroke-linejoin:round" d="m 57.265784,15.807568 22.937913,9.601725 m -9.344872,-9.601725 9.344872,23.043587 m 0,-13.441862 -9.770513,22.829785 m 9.770513,-9.387923 -22.937913,9.174122 M 70.433184,48.4515 47.708092,38.423553 m 9.344872,9.814146 -8.924724,-23.257387 m -0.424267,13.441862 9.98196,-22.829786 m -9.765021,9.389303 -0.849908,-10.455548 10.619048,1.066245 m -9.980587,23.050483 -8.070696,-7.034735 8.283516,-6.620928 m 9.343499,23.25187 -10.619048,0.853824 1.061356,-10.455548 m 22.937913,9.605862 -6.796521,8.321679 -6.79652,-8.321679 M 80.203697,38.855293 81.053605,49.523262 70.647378,48.243216 M 80.20507,25.413431 88.488587,32.241262 80.20507,38.86219 M 70.647378,15.807568 81.266426,14.741323 80.20507,25.409293 m -32.496978,-0.0014 22.937913,-9.601724 m -13.380221,0.0014 6.796521,-8.321678 6.590565,8.321678 m -6.591938,40.96561 A 24.637729,24.751234 0 1 0 39.424575,32.021944 24.654206,24.767786 0 0 0 64.060932,56.773179 Z M 70.651497,15.80619 73.412669,9.4045807 m 6.79652,16.0005743 6.37088,-2.560091 m -6.37088,16.000574 6.37088,2.773893 m -15.927199,6.827832 2.548352,6.401609 M 57.274023,48.447362 54.51285,54.848971 M 47.71633,38.848396 41.34545,41.408488 M 47.71633,25.407913 41.34545,22.63402 M 57.27265,15.806189 54.724298,9.4045797 M 18.934782,24.341668 H 9.2618926 c -4.26794,-0.06504 -7.7624497,3.392674 -7.7624497,7.680828 0,4.288016 3.4945097,7.745795 7.7624497,7.680827 h 9.6728894 m 90.263278,0 h 9.65682 c 4.16702,-0.131646 7.51449,-3.494608 7.64561,-7.680827 0.017,-4.249118 -3.41597,-7.697932 -7.64561,-7.680828 h -9.65682 M 91.974639,21.999515 105.7805,27.761101 m -5.52234,-5.761586 5.73516,14.081885 m 0,-8.107877 -5.94661,13.869463 m 5.73516,-5.760207 -14.017306,5.547786 m 8.283516,0.213801 -11.644567,-5.039354 m 3.362424,5.039354 -2.971383,-7.576824 m 0.02051,-4.194496 3.581011,-8.073393 m -5.81178,-0.568296 5.603079,0.562778 m -0.212821,19.843472 -5.37845,0.347833 m 13.449147,-0.342316 -4.035349,4.907763 -4.035348,-4.907763 m 13.804487,-5.761586 0.63709,6.401609 -6.37225,-0.640023 m 5.73654,-13.869463 5.0967,4.053938 -5.0967,4.053939 m -5.73517,-14.087403 6.59057,-0.640023 -0.84991,6.620928 M 88.182235,27.169494 100.25601,22.207936 m -8.283513,-0.0014 4.035348,-5.120184 4.035345,5.120184 M 86.110409,43.237519 c 2.747716,2.410708 6.271609,3.740135 9.919624,3.742066 8.335417,8.1e-5 15.092397,-6.788244 15.092397,-15.161924 8e-5,-8.373818 -6.75712,-15.161924 -15.092397,-15.161924 -3.69868,0.0048 -7.266785,1.373787 -10.026858,3.847172 M 36.046905,41.636081 22.241044,35.874495 m 5.522345,5.761586 -5.735165,-14.081885 m 0,8.107877 5.946612,-13.869463 M 22.239671,27.552816 36.25698,22.005031 M 27.973463,21.79123 39.61803,26.830584 m -3.362424,-5.039354 2.971384,7.576824 m -0.02051,4.194496 -3.581011,8.073393 m 5.81178,0.568296 -5.603079,-0.562778 m 0.212821,-19.843472 5.37845,-0.347833 m -13.449147,0.342316 4.035349,-4.907763 4.035348,4.907763 m -13.804488,5.761586 -0.637088,-6.401609 6.372252,0.640023 M 22.24113,35.661935 17.144426,31.607997 22.24113,27.554058 m 5.735164,14.087403 -6.590565,0.640023 0.849909,-6.620928 m 17.603674,0.805546 -12.073778,4.961558 m 8.283516,0.0014 -4.035348,5.120184 -4.035348,-5.120184 M 41.911135,20.398077 c -2.747716,-2.410707 -6.271609,-3.740134 -9.919624,-3.742066 -8.335417,-8.1e-5 -15.092394,6.788244 -15.092394,15.161924 -8e-5,8.373818 6.757114,15.161924 15.092394,15.161924 3.69868,-0.0048 7.266784,-1.373787 10.026858,-3.847172"/>
</svg>